<svg fill="#f0f0f0" width="800" height="800" viewBox="0 0 32 32" xmlns="http://www.w3.org/2000/svg"><path d="M22.231 11.348v9.159h2.134l.143-.581c.173.219.386.397.63.526l.011.005c.246.107.533.169.835.169h.009a1.562 1.562 0 00.975-.298l-.005.003c.246-.166.43-.407.52-.691l.003-.009c.071-.327.112-.702.112-1.087l-.002-.144v.007-2.572l.002-.186a8.96 8.96 0 00-.048-.932l.003.038a1.272 1.272 0 00-.214-.527l.003.004a1.276 1.276 0 00-.523-.411l-.008-.003a2.121 2.121 0 00-.775-.144h-.045.002c-.307.001-.599.06-.868.165l.016-.006a2.02 2.02 0 00-.63.496l-.002.003v-2.986zm3.078 6.942a3.138 3.138 0 01-.072.855l.004-.021c-.041.118-.236.177-.379.177l-.024.001a.275.275 0 01-.253-.167l-.001-.002a2.306 2.306 0 01-.075-.784v.007-2.422a2.6 2.6 0 01.071-.794l-.004.018a.265.265 0 01.24-.153l.032.002h-.001c.143 0 .337.051.387.177a2.264 2.264 0 01.075.757v-.007zm-6.393 2.218l.16.002c.394 0 .78-.034 1.154-.1l-.04.006c.273-.05.513-.166.711-.331l-.002.002c.198-.163.341-.386.403-.641l.002-.008a7.092 7.092 0 00.127-1.658v.013-3.213a10.882 10.882 0 00-.099-1.802l.006.057a1.585 1.585 0 00-.39-.802l.001.001a1.794 1.794 0 00-.915-.521l-.012-.002a9.693 9.693 0 00-2.22-.159l.019-.001h-1.772v9.159zm.026-7.507a.353.353 0 01.176.251v.002a3.864 3.864 0 01.043.811v-.009 3.551a3.05 3.05 0 01-.125 1.136l.006-.022c-.076.143-.287.211-.624.211v-6.014a1.083 1.083 0 01.531.088l-.007-.003zm-3.703-1.653v9.159h-2.066v-6.182l-.835 6.182h-1.476l-.869-6.047-.008 6.047H7.91v-9.159h3.07c.093.557.186 1.206.287 1.957l.337 2.328.548-4.285zm-8.131 0v9.159h-2.37v-9.159zm21.87-9.657c.785.06 1.4.711 1.4 1.506v25.605c0 .787-.6 1.433-1.368 1.507H3.136a1.513 1.513 0 01-1.375-1.395V3.1a1.508 1.508 0 011.395-1.408h.005zm0-.617H3.161a2.143 2.143 0 00-2.015 1.977v.007l-.001 25.851a2.128 2.128 0 001.927 2.013l.008.001a.428.428 0 00.052.003h25.872q.027 0 .054-.003a2.145 2.145 0 001.936-2.125V3.2a2.138 2.138 0 00-1.963-2.124h-.008c-.013-.002-.029-.002-.045-.002h-.001z"/></svg>